HIERARCHY
ROOT hip
{
	OFFSET 0.000000 0.000000 0.000000 
	CHANNELS 6 Xposition Yposition Zposition Xrotation Zrotation Yrotation
	JOINT abdomen
	{
		OFFSET 0.000000 3.402643 0.000000 
		CHANNELS 3 Xrotation Zrotation Yrotation
		JOINT chest
		{
			OFFSET 0.000000 8.438565 -0.680529 
			CHANNELS 3 Xrotation Zrotation Yrotation
			JOINT neck
			{
				OFFSET 0.000000 10.207942 -0.272212 
				CHANNELS 3 Xrotation Zrotation Yrotation
				JOINT head
				{
					OFFSET 0.000000 3.130431 0.000000 
					CHANNELS 3 Xrotation Zrotation Yrotation
					End Site
					{
						OFFSET 0.000000 3.130435 0.000000 
					}
				}
			}
			JOINT lCollar
			{
				OFFSET 3.470700 6.669187 -0.816635 
				CHANNELS 3 Yrotation Zrotation Xrotation
				JOINT lShldr
				{
					OFFSET 3.198488 0.000000 0.000000 
					CHANNELS 3 Zrotation Yrotation Xrotation
					JOINT lForeArm
					{
						OFFSET 10.139888 0.000000 0.000000 
						CHANNELS 3 Yrotation Zrotation Xrotation
						JOINT lHand
						{
							OFFSET 8.370511 0.000000 0.000000 
							CHANNELS 3 Zrotation Yrotation Xrotation
							End Site
							{
								OFFSET 4.083176 0.000000 0.000000 
							}
						}
					}
				}
			}
			JOINT rCollar
			{
				OFFSET -3.470700 6.669187 -0.816635 
				CHANNELS 3 Yrotation Zrotation Xrotation
				JOINT rShldr
				{
					OFFSET -3.198488 0.000000 0.000000 
					CHANNELS 3 Zrotation Yrotation Xrotation
					JOINT rForeArm
					{
						OFFSET -10.139888 0.000000 0.000000 
						CHANNELS 3 Yrotation Zrotation Xrotation
						JOINT rHand
						{
							OFFSET -8.370511 0.000000 0.000000 
							CHANNELS 3 Zrotation Yrotation Xrotation
							End Site
							{
								OFFSET -4.083176 0.000000 0.000000 
							}
						}
					}
				}
			}
		}
	}
	JOINT lThigh
	{
		OFFSET 5.308129 -1.633274 1.361059 
		CHANNELS 3 Xrotation Zrotation Yrotation
		JOINT lShin
		{
			OFFSET -2.041588 -20.007561 0.000000 
			CHANNELS 3 Xrotation Zrotation Yrotation
			JOINT lFoot
			{
				OFFSET 0.000000 -19.190928 -1.224953 
				CHANNELS 3 Xrotation Yrotation Zrotation
				End Site
				{
					OFFSET 0.000000 -2.449906 4.627600 
				}
			}
		}
	}
	JOINT rThigh
	{
		OFFSET -5.308129 -1.633274 1.361059 
		CHANNELS 3 Xrotation Zrotation Yrotation
		JOINT rShin
		{
			OFFSET 2.041588 -20.007561 0.000000 
			CHANNELS 3 Xrotation Zrotation Yrotation
			JOINT rFoot
			{
				OFFSET 0.000000 -19.190928 -1.224953 
				CHANNELS 3 Xrotation Yrotation Zrotation
				End Site
				{
					OFFSET 0.000000 -2.449906 4.627600 
				}
			}
		}
	}
}
MOTION
Frames: 10
Frame Time: 0.033333
0.340061 51.548656 0.340061 -29.238281 -0.008521 -0.004997 15.537651 1.070838 -3.852442 -30.322266 -0.009564 0.001654 -13.362952 -1.565361 -4.261165 10.524219 0.508720 -0.030344 -10.857537 -10.037105 -19.587547 -59.237991 59.597027 -0.326839 -14.015388 -1.832937 2.394471 -38.815926 -50.520088 65.799850 1.841971 9.999969 -19.574219 52.575531 -57.699955 8.855599 50.756157 2.728088 1.929428 38.805038 50.520535 65.806732 3.053839 6.977530 3.148777 40.926163 -0.359134 -3.820298 33.708870 1.788141 -7.337975 18.378441 -9.678139 -11.820307 41.394775 0.317121 3.826855 26.440718 2.249813 5.398189 
0.340061 53.547470 0.340061 -58.476563 -0.005106 -0.011208 10.057404 0.699319 -3.942936 -36.074219 -0.009350 0.002602 -45.295578 -3.730597 -3.031606 10.524219 0.508720 -0.030344 -9.299217 -10.865344 -10.977798 49.310291 69.425171 113.360741 -14.015388 -1.832937 2.394471 -38.815926 -50.520088 65.799850 0.269909 10.831064 -10.974709 -38.865261 -58.131924 105.712593 30.008146 2.250146 2.261885 38.805038 50.520535 65.806732 12.651227 7.469166 2.859710 51.369640 0.265197 -4.215334 48.006432 -3.285129 -7.986006 27.316324 -10.389131 -10.280975 63.257618 -1.105632 4.507102 31.737061 6.815683 5.464013 
0.340061 54.074932 0.340061 -76.875000 -0.006653 -0.000765 12.108814 0.837378 -3.910846 -32.949215 -0.009478 0.002089 -36.917927 -3.235577 -3.461827 10.524219 0.508720 -0.030344 -8.987563 -11.003675 -9.335331 -10.908234 68.129501 53.332417 -14.015388 -1.832937 2.394471 -38.815926 -50.520088 65.799850 -0.034866 10.954775 -9.331825 3.042119 -58.222111 65.806320 30.008146 2.250146 2.261885 38.805038 50.520535 65.806732 19.292837 7.762943 2.756008 56.544300 0.603439 -4.384027 58.297871 -6.423517 -6.958997 33.639626 -10.643959 -9.463979 78.125900 -2.188799 4.638595 31.675480 9.326682 4.291462 
0.340061 52.148293 0.340061 -92.519524 -0.005152 0.000112 14.619257 1.006651 -3.873409 -29.257813 -0.009593 0.001474 -26.108582 -2.514134 -3.908583 10.524219 0.508720 -0.030344 -8.742142 -11.093545 -8.058132 -40.857513 49.156670 22.615204 -14.015388 -1.832937 2.394471 -38.815926 -50.520088 65.799850 -0.275852 11.053597 -8.044785 35.431942 -42.787220 35.096390 30.008146 2.250146 2.261885 38.805038 50.520535 65.806732 19.292837 7.762943 2.756008 56.544300 0.603440 -4.384028 80.809746 -6.188966 -5.026123 33.639629 -10.643964 -9.463980 89.795341 -3.028495 4.546600 36.820827 6.193704 2.850487 
0.340061 49.288872 0.340061 -103.935547 -0.004704 0.000575 16.866100 1.157222 -3.834756 -25.996092 -0.009661 0.000926 -16.597656 -1.818073 -4.179165 10.524219 0.508720 -0.030344 -8.546406 -11.164626 -7.065629 -49.049252 28.758116 12.783283 -14.015388 -1.832937 2.394471 -38.815926 -50.520088 65.799850 -0.460076 11.123441 -7.061888 48.400711 -23.015074 23.276417 30.008146 2.250146 2.261885 38.805038 50.520535 65.806732 19.292837 7.762942 2.756008 56.544300 0.603441 -4.384028 75.153351 -3.833603 -6.148069 33.639629 -10.643966 -9.463981 87.542526 -2.862843 4.585563 25.773129 2.606305 5.221819 
0.340061 46.179607 0.340061 -113.076172 -0.003828 0.000781 18.800673 1.285947 -3.790014 -23.203125 -0.009695 0.000454 -7.844424 -1.137572 -4.343008 10.524219 0.508720 -0.030344 -8.401618 -11.216403 -6.287278 -51.692154 10.353678 7.739821 -14.015388 -1.832937 2.394471 -38.815926 -50.520088 65.799850 -0.612713 11.178697 -6.285412 54.291294 -4.342694 18.139559 30.008146 2.250146 2.261885 38.805038 50.520535 65.806732 -2.985920 8.340241 8.009438 46.874107 0.006089 -4.084211 61.206882 1.901927 -0.952482 23.382263 -11.951259 -13.525625 76.352875 -2.043046 4.639259 15.307739 -0.530294 2.420619 
0.340061 42.914871 0.340061 -121.484383 0.000000 0.009766 20.618040 1.406126 -3.749093 -20.517576 0.000060 -0.009755 0.135743 -0.508248 -4.394522 10.524219 0.508720 -0.030344 -8.269639 -11.258519 -5.596053 -52.080650 -7.359594 3.779939 -14.015388 -1.832937 2.394471 -38.815926 -50.520088 65.799850 -0.759206 11.227577 -5.585776 57.550137 13.887160 15.311691 30.008146 2.250146 2.261885 38.805038 50.520535 65.806732 -29.275618 11.581059 13.569077 35.305428 -0.671903 -3.562290 42.280998 -3.117558 7.431947 12.338034 -14.165928 -17.772327 63.306400 -1.106892 4.508204 3.799017 1.206239 -1.238259 
0.340061 39.366966 0.340061 -128.867188 0.000000 0.000000 22.523680 1.532417 -3.696726 -17.832031 0.000059 -0.009752 8.534756 0.155394 -4.345750 10.524219 0.508720 -0.030344 -8.129977 -11.301222 -4.887977 -50.443794 -26.467131 -0.863849 -14.015388 -1.832937 2.394471 -38.815926 -50.520088 65.799850 -0.898284 11.277533 -4.878144 59.320759 33.617554 13.235538 30.008146 2.250146 2.261885 38.805038 50.520535 65.806732 -50.370056 16.600790 18.078712 24.607161 -1.173113 -2.991047 24.108059 -15.909230 6.071735 1.463182 -16.989479 -21.213737 50.608932 -0.258156 4.176392 -6.269102 6.459346 -1.616055 
0.340061 35.513687 0.340061 -135.478531 0.000000 0.000000 24.605354 1.667042 -3.640344 -14.843750 0.000059 -0.009749 17.656424 0.852491 -4.185712 10.524219 0.508720 -0.030344 -7.986975 -11.350096 -4.133856 -44.499176 -48.065960 -9.140884 -14.015388 -1.832937 2.394471 -38.815926 -50.520088 65.799850 -1.041960 11.319758 -4.123820 58.641422 55.874622 10.312478 30.008146 2.250146 2.261885 38.805038 50.520535 65.806732 -46.698742 20.263300 25.437773 18.535696 -1.420249 -2.619674 5.841689 -24.196985 -1.251667 -10.370652 -20.392326 -23.728579 37.609406 0.527505 3.655285 -15.409609 11.974940 2.738394 
0.340061 31.982449 0.340061 -141.699219 0.000000 0.000000 26.511362 1.780011 -3.584351 -12.089843 0.000058 -0.009746 26.002142 1.465117 -3.946395 10.524219 0.508720 -0.030344 -7.839824 -11.395622 -3.367583 -22.998018 -69.029076 -32.802135 -14.015388 -1.832937 2.394471 -38.815926 -50.520088 65.799850 -1.196428 11.365534 -3.357177 42.349449 77.388100 -6.601652 30.008146 2.250146 2.261885 38.805038 50.520535 65.806732 -39.168198 21.178562 31.076958 15.629739 -1.525059 -2.434972 171.972672 -153.333679 -187.560226 -24.295088 -24.018673 -24.453106 24.715841 1.152228 2.982610 -21.868483 14.383506 10.024357 
